<svg xmlns="http://www.w3.org/2000/svg" version="1.1" xmlns:xlink="http://www.w3.org/1999/xlink" xmlns:svgjs="http://svgjs.dev/svgjs" width="2000" height="717" viewBox="0 0 2000 717"><g transform="matrix(1,0,0,1,-1.2121212121213603,-0.047354077789236726)"><svg viewBox="0 0 396 142" data-background-color="#ffffff" preserveAspectRatio="xMidYMid meet" height="717" width="2000" xmlns="http://www.w3.org/2000/svg" xmlns:xlink="http://www.w3.org/1999/xlink"><g id="tight-bounds" transform="matrix(1,0,0,1,0.24000000000003752,0.00937835292339173)"><svg viewBox="0 0 395.5199999999999 141.98124329415322" height="141.98124329415322" width="395.5199999999999"><g><svg viewBox="0 0 661.6982806671824 237.53222232688643" height="141.98124329415322" width="395.5199999999999"><g transform="matrix(1,0,0,1,0,32.8282593809228)"><svg viewBox="0 0 395.52 171.87570356504082" height="171.87570356504082" width="395.52"><g id="textblocktransform"><svg viewBox="0 0 395.52 171.87570356504082" height="171.87570356504082" width="395.52" id="textblock"><g><svg viewBox="0 0 395.52 120.1404138898632" height="120.1404138898632" width="395.52"><g transform="matrix(1,0,0,1,0,0)"><svg width="395.52" viewBox="-6.6 -34.8 142.54 43.3" height="120.1404138898632" data-palette-color="#5baaf1"><path d="M-1.45 8.5L-1.45 8.5Q-4.05 8.5-5.33 7.25-6.6 6-6.6 3.6L-6.6 3.6Q-6.6 3.1-6.38 2.88-6.15 2.65-5.95 2.65L-5.95 2.65Q-5.7 2.65-5.43 2.78-5.15 2.9-4.5 3.15L-4.5 3.15Q-3.3 3.65-2.18 4.03-1.05 4.4-0.2 4.4L-0.2 4.4Q0.55 4.4 1.07 3.65 1.6 2.9 1.98 1.07 2.35-0.75 2.7-3.9L2.7-3.9 6.1-34.75 9.6-34.75Q11-34.75 11.4-33.77 11.8-32.8 11.8-31.45L11.8-31.45Q11.8-30.55 11.55-28.7 11.3-26.85 10.9-23.3L10.9-23.3 9.1-6.7Q8.65-2.45 7.63 0.48 6.6 3.4 5.2 5.18 3.8 6.95 2.1 7.73 0.4 8.5-1.45 8.5ZM26.1 0.7L26.1 0.7Q25.7 0.7 25.32 0.45 24.95 0.2 24.8-0.75L24.8-0.75Q24.25-4.6 23.32-8.7 22.4-12.8 21.32-16.88 20.25-20.95 19.2-24.65L19.2-24.65Q18.55-27 18.05-28.05 17.55-29.1 17-29.85L17-29.85Q16.45-30.6 15.87-31.1 15.3-31.6 15.3-32.05L15.3-32.05Q15.3-32.55 16.02-33 16.75-33.45 17.77-33.83 18.8-34.2 19.82-34.4 20.85-34.6 21.45-34.6L21.45-34.6Q22.3-34.6 22.97-33.75 23.65-32.9 24.32-30.93 25-28.95 25.75-25.5L25.75-25.5 30.3-4.65 28.25-4.05 38.2-24.55Q38.9-26 39.25-26.95 39.6-27.9 39.77-28.73 39.95-29.55 40.05-30.55L40.05-30.55Q40.15-31.5 41-32.25 41.85-33 42.95-33.55 44.05-34.1 45.05-34.4 46.05-34.7 46.5-34.7L46.5-34.7Q47.85-34.7 47.85-33.85L47.85-33.85Q47.85-33.3 47.45-32.55L47.45-32.55 32.25-2.6Q31.9-1.9 31.07-1.13 30.25-0.35 29.02 0.18 27.8 0.7 26.1 0.7ZM48.95 0.8L48.95 0.8Q46.15 0.8 44.95-1.48 43.75-3.75 43.75-7.85L43.75-7.85Q43.75-11.5 44.82-14.55 45.9-17.6 47.75-19.83 49.59-22.05 52.05-23.28 54.5-24.5 57.25-24.5L57.25-24.5Q59.4-24.5 61.17-23.93 62.95-23.35 64.2-22.75L64.2-22.75 62.75-17.5Q61.4-18.4 59.72-19.15 58.05-19.9 56.62-20.33 55.2-20.75 54.5-20.75L54.5-20.75Q53.09-20.75 51.92-19.38 50.75-18 50.07-15.58 49.4-13.15 49.4-10L49.4-10Q49.4-7.1 49.82-5.6 50.25-4.1 51.2-4.1L51.2-4.1Q51.84-4.1 53.4-5.58 54.95-7.05 57.15-10.5 59.34-13.95 61.8-19.85L61.8-19.85 63.2-15.4Q60.5-9.4 58.05-5.85 55.59-2.3 53.34-0.75 51.09 0.8 48.95 0.8ZM64.4 0.5L60.9 0.5Q59.9 0.5 59.7-0.48 59.5-1.45 59.5-2.55L59.5-2.55Q59.5-3.4 59.72-4.65 59.95-5.9 60.3-7.35 60.65-8.8 61.05-10.2L61.05-10.2 62.15-13.95 60.7-15.25 61.9-22.8Q63.5-23.05 64.72-23.45 65.95-23.85 66.77-24.15 67.59-24.45 67.95-24.45L67.95-24.45Q68.5-24.45 68.5-23.85L68.5-23.85Q68.5-23.6 67.87-21.73 67.25-19.85 66.52-16.95 65.8-14.05 65.45-10.65L65.45-10.65 64.4 0.5ZM76.79 0.7L73.29 0.7Q72.39 0.7 71.89-0.4 71.39-1.5 71.44-2.95L71.44-2.95Q71.49-4.65 71.74-7 71.99-9.35 72.24-11.65L72.24-11.65 73.64-23.45Q73.94-25.7 73.79-27.45 73.64-29.2 73.39-30.55 73.14-31.9 73.14-32.85L73.14-32.85Q73.14-33.4 74.02-33.83 74.89-34.25 76.04-34.52 77.19-34.8 77.99-34.8L77.99-34.8Q78.84-34.8 79.49-33.58 80.14-32.35 80.14-30.75L80.14-30.75Q80.14-30.4 80.04-28.8 79.94-27.2 79.64-25.15L79.64-25.15 78.04-13.65Q77.54-10.05 77.34-6.48 77.14-2.9 76.79 0.7L76.79 0.7ZM91.59 0.75L91.59 0.75Q87.29 0.75 84.92-1.78 82.54-4.3 82.54-9.2L82.54-9.2Q82.54-12.45 83.62-15.23 84.69-18 86.54-20.1 88.39-22.2 90.82-23.38 93.24-24.55 95.94-24.55L95.94-24.55Q100.24-24.55 102.52-22 104.79-19.45 104.79-14.3L104.79-14.3Q104.79-11.2 103.77-8.47 102.74-5.75 100.94-3.68 99.14-1.6 96.74-0.43 94.34 0.75 91.59 0.75ZM92.79-3L92.79-3Q94.69-3 96.07-4.4 97.44-5.8 98.17-8.25 98.89-10.7 98.89-13.75L98.89-13.75Q98.89-17 97.92-18.9 96.94-20.8 94.69-20.8L94.69-20.8Q92.84-20.8 91.42-19.4 89.99-18 89.22-15.58 88.44-13.15 88.44-10.05L88.44-10.05Q88.44-6.6 89.54-4.8 90.64-3 92.79-3ZM112.79 0.8L109.29 0.8Q108.44 0.8 108.19-0.18 107.94-1.15 107.94-2.2L107.94-2.2Q107.94-4 108.11-5.4 108.29-6.8 108.49-8.5L108.49-8.5 110.29-24.55 113.79-24.55Q114.79-24.55 115.09-23.45 115.39-22.35 115.39-20.95L115.39-20.95Q115.39-20.25 115.29-19.48 115.19-18.7 114.99-17.1L114.99-17.1 114.04-8.95Q113.74-6.35 113.49-4.6 113.24-2.85 113.09-1.6 112.94-0.35 112.79 0.8L112.79 0.8ZM113.69-27.4L113.69-27.4Q112.29-27.4 111.26-28.35 110.24-29.3 110.24-30.85L110.24-30.85Q110.24-32.7 111.44-33.73 112.64-34.75 114.19-34.75L114.19-34.75Q115.64-34.75 116.61-33.9 117.59-33.05 117.59-31.35L117.59-31.35Q117.59-29.65 116.44-28.53 115.29-27.4 113.69-27.4ZM125.79 0.8L125.79 0.8Q121.99 0.8 119.81-0.38 117.64-1.55 117.64-3.55L117.64-3.55Q117.64-4.45 117.91-5.23 118.19-6 118.74-6L118.74-6Q118.94-6 119.19-5.9 119.44-5.8 120.14-5.35L120.14-5.35Q121.14-4.7 122.36-4.15 123.59-3.6 124.86-3.28 126.14-2.95 127.24-2.95L127.24-2.95Q128.84-2.95 129.56-3.73 130.29-4.5 130.29-5.8L130.29-5.8Q130.29-6.75 129.71-7.38 129.14-8 127.89-8.8L127.89-8.8 124.79-10.8Q122.84-12.05 121.51-13.48 120.19-14.9 120.19-17.2L120.19-17.2Q120.19-20.45 122.69-22.48 125.19-24.5 129.74-24.5L129.74-24.5Q132.94-24.5 134.44-23.85 135.94-23.2 135.94-21.6L135.94-21.6Q135.94-20.35 135.56-19.5 135.19-18.65 134.54-18.65L134.54-18.65Q134.34-18.65 134.01-18.75 133.69-18.85 133.44-19L133.44-19Q133.04-19.25 132.19-19.7 131.34-20.15 130.29-20.53 129.24-20.9 128.09-20.9L128.09-20.9Q126.94-20.9 126.21-20.23 125.49-19.55 125.49-18.4L125.49-18.4Q125.49-17.45 126.09-16.8 126.69-16.15 128.09-15.45L128.09-15.45 131.34-13.95Q133.39-13 134.66-11.73 135.94-10.45 135.94-7.95L135.94-7.95Q135.94-5 134.51-3.05 133.09-1.1 130.76-0.15 128.44 0.8 125.79 0.8Z" opacity="1" transform="matrix(1,0,0,1,0,0)" fill="#5baaf1" class="wordmark-text-0" data-fill-palette-color="primary" id="text-0"></path></svg></g></svg></g><g transform="matrix(1,0,0,1,163.310208,148.50268223932653)"><svg viewBox="0 0 232.209792 23.373021325714287" height="23.373021325714287" width="232.209792"><g transform="matrix(1,0,0,1,0,0)"><svg width="232.209792" viewBox="0.49 -40.7 410.11 41.290000000000006" height="23.373021325714287" data-palette-color="#5baaf1"><path d="M32.93 0L28.27 0 23.66-11.94 9.77-11.94 5.15 0 0.49 0 14.4-35.11 19.02-35.11 32.93 0ZM16.7-29.98L11.21-15.7 22.22-15.7 16.7-29.98ZM41.87-19.51L42.09-19.51Q42.84-21.02 43.71-22.24 44.58-23.46 45.63-24.32L45.63-24.32Q46.58-25.15 47.73-25.55 48.87-25.95 50.34-25.95L50.34-25.95Q50.83-25.95 51.47-25.9 52.12-25.85 52.71-25.73L52.71-25.73Q52.61-24.51 52.48-23.44 52.34-22.36 52.12-21.26L52.12-21.26Q50.9-21.48 49.89-21.58 48.87-21.68 47.97-21.53L47.97-21.53Q46.9-21.34 46.1-20.81 45.31-20.29 44.64-19.42 43.97-18.55 43.33-17.35 42.7-16.14 41.94-14.58L41.94-14.58 41.94 0 37.74 0 37.74-15.65Q37.74-17.19 37.71-18.36 37.67-19.53 37.56-20.59 37.45-21.66 37.23-22.69 37.01-23.73 36.64-25L36.64-25Q37.67-25.27 38.66-25.49 39.65-25.71 40.67-25.9L40.67-25.9Q41.01-24.93 41.22-24.17 41.43-23.41 41.55-22.69 41.67-21.97 41.73-21.23 41.79-20.48 41.87-19.51L41.87-19.51ZM60.1-25.39L60.1-31.2 64.3-31.2 64.3-25.39 72.85-25.39 72.85-21.85 64.3-21.85 64.3-7.28Q64.3-5.81 64.39-5.04 64.47-4.27 64.81-3.83L64.81-3.83Q65.45-2.95 67.38-2.95L67.38-2.95Q68.45-2.95 69.45-3.17L69.45-3.17Q70.48-3.39 71.33-3.66L71.33-3.66Q72.02-2.17 72.58-0.39L72.58-0.39Q69.7 0.59 66.77 0.59L66.77 0.59Q64.64 0.59 63.36 0.11 62.08-0.37 61.35-1.44L61.35-1.44Q60.59-2.56 60.35-4.13 60.1-5.69 60.1-8.45L60.1-8.45 60.1-21.85 56.44-21.85 56.44-25.39 60.1-25.39ZM86.42-25.95L86.42-25.95Q88.42-25.95 90.43-25.54 92.45-25.12 94.18-24.39L94.18-24.39Q93.84-23.61 93.47-22.85 93.11-22.09 92.67-21.36L92.67-21.36Q92.06-21.61 91.31-21.85 90.57-22.09 89.75-22.27 88.93-22.44 88.07-22.55 87.2-22.66 86.37-22.66L86.37-22.66Q85.47-22.66 84.62-22.47 83.78-22.29 83.13-21.88 82.49-21.46 82.1-20.79 81.71-20.12 81.71-19.12L81.71-19.12Q81.71-18.09 82.15-17.4 82.59-16.7 83.34-16.24 84.1-15.77 85.11-15.45 86.13-15.14 87.27-14.87L87.27-14.87Q89.06-14.43 90.59-13.88 92.13-13.33 93.25-12.45 94.38-11.57 95.01-10.28 95.65-8.98 95.65-7.08L95.65-7.08Q95.65-5.08 94.85-3.64 94.06-2.2 92.7-1.26 91.35-0.32 89.54 0.13 87.74 0.59 85.69 0.59L85.69 0.59Q84.61 0.59 83.48 0.45 82.34 0.32 81.23 0.06 80.12-0.2 79.05-0.56 77.97-0.93 77.02-1.37L77.02-1.37Q77.36-2.15 77.74-2.89 78.12-3.64 78.53-4.37L78.53-4.37Q79.34-4.03 80.24-3.72 81.14-3.42 82.1-3.2 83.05-2.98 83.98-2.84 84.9-2.71 85.76-2.71L85.76-2.71Q86.83-2.71 87.85-2.95 88.86-3.2 89.65-3.72 90.45-4.25 90.92-5.08 91.4-5.91 91.4-7.08L91.4-7.08Q91.4-8.18 90.95-8.89 90.5-9.59 89.74-10.07 88.98-10.55 87.97-10.85 86.96-11.16 85.83-11.43L85.83-11.43Q84.12-11.84 82.6-12.38 81.07-12.92 79.94-13.78 78.8-14.65 78.13-15.93 77.46-17.21 77.46-19.12L77.46-19.12Q77.46-20.9 78.19-22.19 78.92-23.49 80.16-24.32 81.39-25.15 83.01-25.55 84.64-25.95 86.42-25.95ZM145.25-7.28L145.25-7.28 147.64-5.44Q147.03-4.25 146.64-3.56 146.25-2.88 145.61-1.99 144.96-1.1 144.37-0.62 143.79-0.15 142.96 0.2 142.13 0.54 141.17 0.54L141.17 0.54Q139.51 0.54 138.17-0.22 136.83-0.98 135.02-3.2L135.02-3.2Q130.68 0.59 124.91 0.59L124.91 0.59Q123.52 0.59 122.23 0.34L122.23 0.34Q118.66-0.29 116.67-2.66 114.68-5.03 114.68-8.57L114.68-8.57Q114.68-10.28 115.06-11.62 115.44-12.96 116.43-14.31 117.42-15.65 118.73-16.86 120.03-18.07 122.25-19.85L122.25-19.85Q120.03-22.75 119.3-24.43 118.57-26.1 118.57-27.78L118.57-27.78Q118.57-31.18 120.76-33.41 122.96-35.64 127.06-35.64L127.06-35.64Q130.24-35.64 134.66-34.59L134.66-34.59 133.65-31.3Q133.39-31.35 132.42-31.57 131.46-31.79 131.18-31.84 130.9-31.88 130.24-31.99 129.58-32.1 129.1-32.14 128.63-32.18 128.11-32.18L128.11-32.18Q125.43-32.18 124.24-30.98 123.06-29.79 123.06-27.86L123.06-27.86Q123.06-26.83 123.63-25.61 124.21-24.39 125.65-22.34L125.65-22.34 135.66-9.42Q137.51-12.38 138.12-16.04L138.12-16.04 134.92-16.04 134.92-19.38 145.86-19.38 145.86-16.04 141.42-16.04Q140.34-10.38 137.88-6.54L137.88-6.54Q139.2-4.79 139.97-4 140.73-3.22 141.39-3.22L141.39-3.22Q142.25-3.22 143.11-4.16 143.98-5.1 145.25-7.28ZM132.75-6.15L132.75-6.15 124.35-17.11Q121.81-15.26 120.43-13.39 119.05-11.52 119.05-9.13L119.05-9.13Q119.05-6.52 120.78-4.91 122.5-3.3 125.3-3.3L125.3-3.3Q127.01-3.3 128.99-4.02 130.97-4.74 132.75-6.15ZM167.9 0L167.9-35.11 172.49-35.11 172.49-3.76 186.87-3.76 186.87 0 167.9 0ZM195.15-35.23L195.15-35.23Q196.27-35.23 197.1-34.45L197.1-34.45Q197.9-33.59 197.9-32.45L197.9-32.45Q197.9-31.27 197.1-30.47L197.1-30.47Q196.27-29.64 195.15-29.64L195.15-29.64Q193.97-29.64 193.14-30.47L193.14-30.47Q192.31-31.25 192.31-32.45L192.31-32.45Q192.31-33.62 193.14-34.45L193.14-34.45Q193.97-35.23 195.15-35.23ZM193 0L193-25.39 197.2-25.39 197.2 0 193 0ZM208.18-25.39L208.18-31.2 212.38-31.2 212.38-25.39 220.92-25.39 220.92-21.85 212.38-21.85 212.38-7.28Q212.38-5.81 212.47-5.04 212.55-4.27 212.89-3.83L212.89-3.83Q213.53-2.95 215.46-2.95L215.46-2.95Q216.53-2.95 217.53-3.17L217.53-3.17Q218.56-3.39 219.41-3.66L219.41-3.66Q220.09-2.17 220.66-0.39L220.66-0.39Q217.78 0.59 214.85 0.59L214.85 0.59Q212.72 0.59 211.44 0.11 210.16-0.37 209.43-1.44L209.43-1.44Q208.67-2.56 208.42-4.13 208.18-5.69 208.18-8.45L208.18-8.45 208.18-21.85 204.52-21.85 204.52-25.39 208.18-25.39ZM229.2-25.39L229.2-31.2 233.4-31.2 233.4-25.39 241.94-25.39 241.94-21.85 233.4-21.85 233.4-7.28Q233.4-5.81 233.48-5.04 233.57-4.27 233.91-3.83L233.91-3.83Q234.55-2.95 236.47-2.95L236.47-2.95Q237.55-2.95 238.55-3.17L238.55-3.17Q239.57-3.39 240.43-3.66L240.43-3.66Q241.11-2.17 241.67-0.39L241.67-0.39Q238.79 0.59 235.86 0.59L235.86 0.59Q233.74 0.59 232.46 0.11 231.18-0.37 230.44-1.44L230.44-1.44Q229.69-2.56 229.44-4.13 229.2-5.69 229.2-8.45L229.2-8.45 229.2-21.85 225.54-21.85 225.54-25.39 229.2-25.39ZM257.79-35.23L256.54-39.55Q257.47-40.21 258.14-40.45 258.81-40.7 259.49-40.7L259.49-40.7Q260.69-40.7 261.42-40.22 262.16-39.75 262.48-39 262.81-38.26 262.77-37.3 262.72-36.35 262.33-35.4L262.33-35.4Q262.06-34.77 261.62-33.91 261.18-33.06 260.69-32.14 260.2-31.23 259.7-30.35 259.2-29.47 258.83-28.83L258.83-28.83 255.86-28.83 257.79-35.23ZM265.74-4.71L266.96-1.42Q264.25-0.34 261.87 0.12 259.49 0.59 257.61 0.59L257.61 0.59Q254.73 0.59 252.58-0.33 250.44-1.25 249.01-2.91 247.58-4.57 246.86-6.87 246.14-9.18 246.14-11.96L246.14-11.96Q246.14-13.67 246.38-15.38 246.63-17.09 247.16-18.64 247.7-20.19 248.57-21.53 249.44-22.88 250.68-23.85 251.93-24.83 253.59-25.39 255.25-25.95 257.37-25.95L257.37-25.95Q262.81-25.95 265.57-22.55 268.33-19.14 268.33-12.79L268.33-12.79 268.33-11.45 250.46-11.45Q250.46-9.4 250.9-7.82 251.34-6.25 252.26-5.16 253.17-4.08 254.57-3.52 255.98-2.95 257.91-2.95L257.91-2.95Q258.98-2.95 260.04-3.11 261.11-3.27 262.11-3.53 263.11-3.78 264.02-4.1 264.94-4.42 265.74-4.71L265.74-4.71ZM250.58-14.82L264.11-14.82Q263.91-18.77 262.22-20.59 260.52-22.41 257.37-22.41L257.37-22.41Q254.22-22.41 252.57-20.59 250.92-18.77 250.58-14.82L250.58-14.82ZM279.22-19.51L279.44-19.51Q280.19-21.02 281.06-22.24 281.93-23.46 282.98-24.32L282.98-24.32Q283.93-25.15 285.08-25.55 286.22-25.95 287.69-25.95L287.69-25.95Q288.18-25.95 288.82-25.9 289.47-25.85 290.06-25.73L290.06-25.73Q289.96-24.51 289.83-23.44 289.69-22.36 289.47-21.26L289.47-21.26Q288.25-21.48 287.24-21.58 286.22-21.68 285.32-21.53L285.32-21.53Q284.25-21.34 283.45-20.81 282.66-20.29 281.99-19.42 281.32-18.55 280.68-17.35 280.05-16.14 279.29-14.58L279.29-14.58 279.29 0 275.09 0 275.09-15.65Q275.09-17.19 275.06-18.36 275.02-19.53 274.91-20.59 274.8-21.66 274.58-22.69 274.36-23.73 273.99-25L273.99-25Q275.02-25.27 276.01-25.49 277-25.71 278.02-25.9L278.02-25.9Q278.36-24.93 278.57-24.17 278.78-23.41 278.9-22.69 279.02-21.97 279.08-21.23 279.14-20.48 279.22-19.51L279.22-19.51ZM296.7-20.9L296.7-20.9 295.62-24.32Q299.72-25.95 304.22-25.95L304.22-25.95Q308.15-25.95 310.22-24.63L310.22-24.63Q312.59-23.12 312.59-19.48L312.59-19.48 312.59-9.5Q312.59-7.5 312.64-5.4L312.64-5.4Q312.66-4.15 312.88-2.81L312.88-2.81Q313.08-1.54 313.4-0.39L313.4-0.39 309.39 0.49Q308.83-1.15 308.68-3.17L308.68-3.17 308.2-3.22Q305.17 0.59 300.48 0.59L300.48 0.59Q297.06 0.59 294.99-1.31 292.91-3.2 292.91-6.64L292.91-6.64Q292.91-9.2 294.05-10.84 295.18-12.48 297.26-13.6L297.26-13.6Q300.53-15.38 306.41-15.38L306.41-15.38Q307.19-15.38 308.51-15.33L308.51-15.33 308.51-19.04Q308.51-20.8 307.44-21.58 306.36-22.36 304.07-22.36L304.07-22.36Q300.72-22.36 296.7-20.9ZM308.51-7.13L308.51-7.13 308.51-12.26Q307.85-12.3 306.58-12.3L306.58-12.3Q304.44-12.3 302.63-11.94L302.63-11.94Q299.94-11.4 298.47-10.24 296.99-9.08 296.99-6.91L296.99-6.91Q296.99-3 301.24-3L301.24-3Q303.43-3 305.34-4.17L305.34-4.17Q306.9-5.15 308.51-7.13ZM322.87-25.39L322.87-31.2 327.06-31.2 327.06-25.39 335.61-25.39 335.61-21.85 327.06-21.85 327.06-7.28Q327.06-5.81 327.15-5.04 327.24-4.27 327.58-3.83L327.58-3.83Q328.21-2.95 330.14-2.95L330.14-2.95Q331.22-2.95 332.22-3.17L332.22-3.17Q333.24-3.39 334.1-3.66L334.1-3.66Q334.78-2.17 335.34-0.39L335.34-0.39Q332.46 0.59 329.53 0.59L329.53 0.59Q327.41 0.59 326.12 0.11 324.84-0.37 324.11-1.44L324.11-1.44Q323.35-2.56 323.11-4.13 322.87-5.69 322.87-8.45L322.87-8.45 322.87-21.85 319.2-21.85 319.2-25.39 322.87-25.39ZM362.63-0.44L362.63-0.44 358.58 0.46Q358.12-1 357.92-2.37L357.92-2.37Q357.82-3 357.68-4.96L357.68-4.96 357.16-4.96Q355.82-2.49 353.84-1.03L353.84-1.03Q351.67 0.59 349.25 0.59L349.25 0.59Q345.62 0.59 343.71-1.17L343.71-1.17Q342.08-2.66 341.44-5.74L341.44-5.74Q341.03-7.84 341.03-11.99L341.03-11.99 341.03-25.39 345.23-25.39 345.23-10.82Q345.23-7.18 345.93-5.62L345.93-5.62Q346.98-3.3 350.16-3.3L350.16-3.3Q352.4-3.3 354.55-5.44L354.55-5.44Q355.99-6.88 357.63-9.67L357.63-9.67 357.63-25.39 361.83-25.39 361.83-9.72Q361.83-6.47 362-4.08L362-4.08Q362.1-2.59 362.63-0.44ZM374.25-19.51L374.47-19.51Q375.23-21.02 376.1-22.24 376.96-23.46 378.01-24.32L378.01-24.32Q378.96-25.15 380.11-25.55 381.26-25.95 382.72-25.95L382.72-25.95Q383.21-25.95 383.86-25.9 384.51-25.85 385.09-25.73L385.09-25.73Q384.99-24.51 384.86-23.44 384.73-22.36 384.51-21.26L384.51-21.26Q383.29-21.48 382.27-21.58 381.26-21.68 380.36-21.53L380.36-21.53Q379.28-21.34 378.49-20.81 377.69-20.29 377.02-19.42 376.35-18.55 375.72-17.35 375.08-16.14 374.33-14.58L374.33-14.58 374.33 0 370.13 0 370.13-15.65Q370.13-17.19 370.09-18.36 370.05-19.53 369.94-20.59 369.83-21.66 369.61-22.69 369.39-23.73 369.03-25L369.03-25Q370.05-25.27 371.04-25.49 372.03-25.71 373.06-25.9L373.06-25.9Q373.4-24.93 373.61-24.17 373.81-23.41 373.93-22.69 374.06-21.97 374.12-21.23 374.18-20.48 374.25-19.51L374.25-19.51ZM408.01-4.71L409.23-1.42Q406.52-0.34 404.14 0.12 401.76 0.59 399.88 0.59L399.88 0.59Q397 0.59 394.85-0.33 392.71-1.25 391.28-2.91 389.85-4.57 389.13-6.87 388.41-9.18 388.41-11.96L388.41-11.96Q388.41-13.67 388.65-15.38 388.9-17.09 389.44-18.64 389.97-20.19 390.84-21.53 391.71-22.88 392.95-23.85 394.2-24.83 395.86-25.39 397.52-25.95 399.64-25.95L399.64-25.95Q405.08-25.95 407.84-22.55 410.6-19.14 410.6-12.79L410.6-12.79 410.6-11.45 392.73-11.45Q392.73-9.4 393.17-7.82 393.61-6.25 394.53-5.16 395.44-4.08 396.84-3.52 398.25-2.95 400.18-2.95L400.18-2.95Q401.25-2.95 402.31-3.11 403.38-3.27 404.38-3.53 405.38-3.78 406.29-4.1 407.21-4.42 408.01-4.71L408.01-4.71ZM392.85-14.82L406.38-14.82Q406.18-18.77 404.49-20.59 402.79-22.41 399.64-22.41L399.64-22.41Q396.49-22.41 394.84-20.59 393.19-18.77 392.85-14.82L392.85-14.82Z" opacity="1" transform="matrix(1,0,0,1,0,0)" fill="#5baaf1" class="slogan-text-1" data-fill-palette-color="secondary" id="text-1"></path></svg></g></svg></g></svg></g></svg></g><g transform="matrix(1,0,0,1,423.88226834946335,0)"><svg viewBox="0 0 237.81601231771904 237.53222232688643" height="237.53222232688643" width="237.81601231771904"><g><svg xmlns="http://www.w3.org/2000/svg" xmlns:xlink="http://www.w3.org/1999/xlink" version="1.1" x="0" y="0" viewBox="8.3 7.4 83.8 83.69999999999999" style="enable-background:new 0 0 100 100;" xml:space="preserve" height="237.53222232688643" width="237.81601231771904" class="icon-icon-0" data-fill-palette-color="accent" id="icon-0"><g fill="#5baaf1" data-fill-palette-color="accent"><path d="M50.2 7.4C27 7.4 8.3 26.1 8.3 49.3S27 91.1 50.2 91.1s41.9-18.7 41.9-41.9S73.2 7.4 50.2 7.4zM50.2 83.8c-19.1 0-34.7-15.6-34.7-34.7 0-19.1 15.6-34.7 34.7-34.7S84.9 30 84.9 49.1C84.7 68.3 69.2 83.8 50.2 83.8z" fill="#5baaf1" data-fill-palette-color="accent"></path><polygon points="29.3,28.3 29.3,34.3 35.2,28.3  " fill="#5baaf1" data-fill-palette-color="accent"></polygon><path d="M66 56.2L41.2 31.3h-3v1.5l26 26C65 57.8 65.6 56.8 66 56.2z" fill="#5baaf1" data-fill-palette-color="accent"></path><path d="M68 58.1l-1-1c-0.9 1.5-2.4 3.6-3.9 5.1-1.5 1.5-3.6 3-5.1 3.9l1 1c1.2-0.7 3.3-2.1 5.1-3.9C65.9 61.4 67.2 59.3 68 58.1z" fill="#5baaf1" data-fill-palette-color="accent"></path><path d="M65 64.1c-1.5 1.5-3.6 3-5.1 3.9l3.6 3.6c0 0 3 0 6-3s3-6 3-6L68.9 59C68 60.5 66.5 62.6 65 64.1z" fill="#5baaf1" data-fill-palette-color="accent"></path><path d="M33.6 37.2h-1.5v3L56.9 65c0.7-0.3 1.8-0.9 2.7-1.8L33.6 37.2z" fill="#5baaf1" data-fill-palette-color="accent"></path><path d="M62.2 61.2c0.4-0.4 1-1 1.3-1.6L38.4 34.5l-2.2 0.7-0.7 2.2 25.1 25.1C61.1 62.1 61.6 61.7 62.2 61.2z" fill="#5baaf1" data-fill-palette-color="accent"></path><polygon points="60.7,43.3 56.2,38.8 53.2,40.3 59.2,46.3  " fill="#5baaf1" data-fill-palette-color="accent"></polygon><polygon points="29.3,70.2 30.8,71.7 45.7,56.8 42.7,53.8  " fill="#5baaf1" data-fill-palette-color="accent"></polygon><path d="M60.7 38.8c4.5 4.5 9 0 9-3s4.5-6 4.5-6-3-1.5-7.5-1.5S54.7 32.8 60.7 38.8zM68.4 29.8c0 0-4.5 1.9-6.3 4-0.9 0.9-1.3 2.4-1.3 2.4s-1.3-1.8 0-3.6C63.1 29.5 68.4 29.8 68.4 29.8z" fill="#5baaf1" data-fill-palette-color="accent"></path></g></svg></g></svg></g></svg></g><defs></defs></svg><rect width="395.5199999999999" height="141.98124329415322" fill="none" stroke="none" visibility="hidden"></rect></g></svg></g></svg>